<svg version="1.1" id="logo" xmlns="http://www.w3.org/2000/svg" xmlns:xlink="http://www.w3.org/1999/xlink" width="425" height="289"
	 viewBox="0 0 425 289" style="enable-background:new 0 0 425 289;" xml:space="preserve">
<style type="text/css">
	.st0{fill:#26A9E0;}
	.st1{fill:#262261;}
</style>
<g>
	<path class="st0" d="M203.2,1.6c9-2.9,19,0.1,25.9,6.2c8.4,7.6,13.9,17.8,18,28.3c4.1,10.4,7.2,21.2,9.2,32.3
		c-2.2,0.7-4.5,1.5-6.7,2.2c-4.6-16-10.3-32.1-20.5-45.5c-4.4-5.2-10-10.8-17.3-10.6c-7.2,1.2-11.9,7.6-15.4,13.6
		c-2.9,4.4-3.2,10.7-8.3,13.3c-5.5,3.3-13.5-0.2-14.6-6.5c-1.2-4.4,1.4-8.4,4-11.6C184,14.2,192,5,203.2,1.6z"/>
	<path class="st0" d="M103.2,63.4c12-3.9,24.9-2.9,37.2-1.1c24.9,4.2,48.7,13.6,71.2,24.8c-2.2,1.1-4.3,2.2-6.4,3.4
		c-0.3-0.3-1-0.9-1.3-1.2c-20-8.3-40.5-15.7-61.9-19.1c-12.5-1.8-25.8-3.2-37.8,1.6c-5.8,2.1-10.4,7.5-10.7,13.8
		c-0.4,11.1,5.8,21,11.8,30c6.7,9.3,14.3,17.9,22.5,26c1.6,1.6,3.2,3.1,4.9,4.7c8.8,8.1,18,15.8,27.7,22.7
		c-0.6-15.5,0.1-31,1.1-46.5c0.8-0.6,1.6-1.2,2.5-1.8c-0.2,17.3-0.4,34.7,1.4,51.9c15,10.5,31,19.6,47.6,27.5c-1.7,1-3.4,2-5.2,2.8
		c-14.3-7.1-28-15.3-41.6-23.6c2.1,21.8,6.4,43.5,13.9,64c4.7,11.6,9.9,23.7,19.5,32.2c4.6,4.1,11.4,6.6,17.3,3.9
		c8.2-3.5,13.5-11.3,17.8-18.8c5.7-10.1,9.6-21.2,13-32.3c0.6-2.4,1.7-4.7,1.4-7.2c-13.3-4.7-26.3-10.4-38.8-16.9
		c2-1.1,4-2.1,6.1-2.9c11,5.6,22.8,9.3,34.4,13.4c1.1-1.2,1.1-3,1.5-4.5c2-10.4,4-20.8,4.8-31.3c1.7-1.1,3.4-2.2,5.1-3.3
		c0.4,13.7-2.6,27.4-4.1,41.1c15.7,3.9,32.1,7.1,48.3,5.1c6.6-1,13.8-2.8,18.2-8.3c1.9-3.1,2.3-6.9,1.5-10.3
		c-1.5-7.2-5.7-13.4-10.1-19.2c-3.5-4.5-1.9-12,3.3-14.5c4.6-2.6,11.5-0.9,13.6,4.1c5,9.8,9.4,20.5,9,31.7
		c-0.4,8.4-4.6,16.8-11.8,21.3c-8.8,5.8-19.8,6.6-30,6.2c-14.9-0.9-29.6-4.5-43.7-9.2c-3.7,17.4-9.2,34.9-19.6,49.5
		c-5.8,8-14.4,15.6-24.9,15.4c-10.8,0.1-19.3-7.9-25.2-16.1c-9.4-13.7-14.7-29.9-18.6-46c-4.1-16.7-5.8-33.9-7.4-50.9
		c-11.3-7.6-22.4-15.6-32.7-24.5c-1.8-1.6-3.6-3.2-5.4-4.8c-13.6-12.3-26.5-26.3-33.9-43.3c-2.8-7.1-5.1-15.1-2.7-22.7
		C87.9,71.9,95.3,65.9,103.2,63.4z"/>
	<path class="st0" d="M251.1,77.2c2.2-0.7,4.4-1.3,6.6-1.9c2.8,14.3,4.1,28.7,5.1,43.2c7.9,6.1,16,11.9,23.2,18.9
		c-7.8-5.2-15.1-11.1-23-16c0.5,13.9,0.8,27.9,0.2,41.8c0.2,1.7-0.8,3.9,0.7,5.2c-1.9,1.4-3.9,2.7-5.8,4c0.6-15.9,1.5-32,0-47.9
		c-0.5-2.6,0.7-6.3-2.2-7.7c-14.3-8.9-29-17.2-44.4-24c1.9-0.9,3.8-1.8,5.7-2.7c13.8,7.4,27.1,15.6,40,24.4
		C256.2,102,254.2,89.4,251.1,77.2z"/>
	<path class="st1" d="M256.3,68.4c17.5-5.6,36-9.8,54.5-7.7c9.3,1.2,19.3,5.1,24.1,13.7c4.8,8.4,3.2,18.6-0.3,27.2
		c-5.9,14.2-16,26.1-26.6,37c-13.8,14-29.4,26-45.7,36.9c-1.7,1.1-3.4,2.2-5.1,3.3c-12.9,8.5-26.5,16.1-40.7,22.4
		c-2.1,0.8-4.1,1.8-6.1,2.9c-10.1,4.5-20.3,9.1-31.1,11.7c9.7-4,19.1-8.5,28.6-12.9c1.8-0.8,3.5-1.8,5.2-2.8
		c15.4-8.5,30.7-17.4,45.1-27.7c1.9-1.4,3.9-2.7,5.8-4c16-12,31.2-25.1,44.4-40.1c7.7-9.1,15-18.9,19.3-30c2.4-6.7,3.9-15-0.7-21.1
		c-5.1-6.3-13.7-7.9-21.4-8.6c-16.2-0.8-32.3,2.6-47.8,6.8c-2.2,0.6-4.4,1.2-6.6,1.9c-11.5,3.7-22.8,8-33.8,12.9
		c-1.9,0.9-3.8,1.8-5.7,2.7c-16.6,7.9-32.6,17.1-47.5,27.8c-0.9,0.6-1.7,1.2-2.5,1.8c-10.1,7.3-19.7,15.4-28.9,23.8
		c-1.7-1.5-3.3-3.1-4.9-4.7c23.6-20.1,50-36.6,77.4-51.1c2.1-1.1,4.3-2.3,6.4-3.4c12.3-6.2,24.9-11.8,37.9-16.5
		C251.8,69.9,254,69.1,256.3,68.4z"/>
	<path class="st1" d="M122.6,146.2c1.8,1.6,3.6,3.2,5.4,4.8c-11.7,12.1-23.1,25.3-29.4,41.2c-2.3,6.5-4.4,14.6,0.1,20.6
		c4.8,5.4,12.7,5.9,19.5,6c5,0.2,10.4-2.4,15.1,0.4c6.3,3.2,6.6,13.3,0.6,17c-3.7,2.6-8.3,1.4-12.5,1.2
		c-11.3-1.1-23.4-3.9-31.5-12.5c-6.9-7.5-8.2-18.7-5.1-28.1c4.4-14.1,13.9-25.9,23.7-36.6C112.9,155.1,117.6,150.5,122.6,146.2z"/>
</g>
</svg>
