<?xml version="1.0" encoding="utf-8"?>
<!-- Generator: Adobe Illustrator 25.3.1, SVG Export Plug-In . SVG Version: 6.00 Build 0)  -->
<svg version="1.1" id="Layer_1" xmlns="http://www.w3.org/2000/svg" xmlns:xlink="http://www.w3.org/1999/xlink" x="0px" y="0px"
	 viewBox="0 0 260 260" style="enable-background:new 0 0 260 260;" xml:space="preserve">
<style type="text/css">
	.st0{fill:#27AAE1;}
	.st1{fill:#262262;}
</style>
<g id="Layer_2_1_">
	<g id="Layer_1-2">
		<path class="st0" d="M37.1,72.8c1.8-0.6,3.9,0,5.3,1.3c1.7,1.6,2.8,3.6,3.7,5.8c0.8,2.1,1.5,4.3,1.9,6.6c-0.5,0.1-0.9,0.3-1.4,0.5
			c-0.9-3.3-2.1-6.6-4.2-9.3c-0.9-1.1-2-2.2-3.5-2.2c-1.5,0.2-2.4,1.6-3.1,2.8C35.1,79.1,35,80.4,34,81c-1,0.5-2.3,0.2-2.8-0.8
			c-0.1-0.2-0.2-0.3-0.2-0.5c-0.2-0.9,0.3-1.7,0.8-2.4C33.2,75.4,34.8,73.5,37.1,72.8z"/>
		<path class="st0" d="M16.7,85.4c2.5-0.8,5.1-0.6,7.6-0.2c5.1,0.9,9.9,2.8,14.5,5.1c-0.4,0.2-0.9,0.5-1.3,0.7l-0.3-0.2
			c-4.1-1.7-8.3-3.2-12.6-3.9c-2.6-0.4-5.3-0.7-7.7,0.3c-1.2,0.4-2.1,1.5-2.2,2.8c-0.1,2.3,1.2,4.3,2.4,6.1c1.4,1.9,2.9,3.7,4.6,5.3
			c0.3,0.3,0.7,0.6,1,1c1.8,1.7,3.7,3.2,5.7,4.6c-0.1-3.2,0-6.3,0.2-9.5c0.2-0.1,0.3-0.2,0.5-0.4c-0.1,3.5-0.1,7.1,0.3,10.6
			c3.1,2.1,6.3,4,9.7,5.6c-0.3,0.2-0.7,0.4-1.1,0.6c-2.9-1.4-5.7-3.1-8.5-4.8c0.4,4.5,1.3,8.9,2.8,13.1c1,2.4,2,4.8,4,6.6
			c0.9,0.8,2.3,1.4,3.5,0.8c1.7-0.7,2.8-2.3,3.6-3.8c1.2-2.1,2-4.3,2.7-6.6c0.1-0.5,0.3-1,0.3-1.5c-2.7-1-5.4-2.1-7.9-3.5
			c0.4-0.2,0.8-0.4,1.2-0.6c2.2,1.1,4.7,1.9,7,2.7c0.2-0.2,0.2-0.6,0.3-0.9c0.5-2.1,0.8-4.2,1-6.4l1-0.7c0.1,2.8-0.5,5.6-0.8,8.4
			c3.2,0.8,6.6,1.5,9.9,1c1.4-0.2,2.8-0.6,3.7-1.7c0.4-0.6,0.5-1.4,0.3-2.1c-0.3-1.5-1.2-2.7-2.1-3.9c-0.7-0.9-0.4-2.2,0.5-2.8
			c0.1,0,0.1-0.1,0.2-0.1c0.9-0.5,2.3-0.2,2.8,0.8c1,2,1.9,4.2,1.8,6.5c-0.1,1.8-1,3.4-2.4,4.3c-1.8,1.2-4,1.4-6.1,1.3
			c-3-0.2-6-0.9-8.9-1.9c-0.8,3.5-1.9,7.1-4,10.1c-1.2,1.6-3,3.2-5.1,3.1c-2.2,0-3.9-1.6-5.1-3.3c-1.9-2.8-3-6.1-3.8-9.4
			c-0.8-3.4-1.2-6.9-1.5-10.4c-2.3-1.5-4.6-3.2-6.7-5c-0.4-0.3-0.7-0.7-1.1-1c-2.8-2.5-5.4-5.3-6.9-8.8c-0.6-1.5-1-3.1-0.5-4.6
			C13.6,87.2,15.1,85.9,16.7,85.4z"/>
		<path class="st0" d="M46.9,88.3c0.4-0.1,0.9-0.3,1.4-0.4c0.5,2.9,0.9,5.9,1,8.8c1.6,1.2,3.3,2.4,4.7,3.8c-1.6-1.1-3.1-2.3-4.7-3.3
			c0.1,2.8,0.2,5.7,0,8.5c0,0.3-0.2,0.8,0.1,1.1c-0.4,0.3-0.8,0.5-1.2,0.8c0.1-3.3,0.3-6.5,0-9.8c-0.1-0.5,0.1-1.3-0.5-1.6
			c-2.9-1.8-5.9-3.5-9.1-4.9c0.4-0.2,0.8-0.4,1.2-0.5c2.8,1.5,5.5,3.2,8.2,5C47.9,93.3,47.5,90.8,46.9,88.3z"/>
		<path class="st1" d="M47.9,86.5c3.6-1.1,7.4-2,11.1-1.6c1.9,0.2,3.9,1,4.9,2.8c1,1.7,0.7,3.8-0.1,5.5c-1.2,2.9-3.3,5.3-5.4,7.6
			c-2.8,2.8-6,5.3-9.3,7.5l-1,0.7c-2.6,1.7-5.4,3.3-8.3,4.6c-0.4,0.2-0.8,0.4-1.2,0.6c-2.1,0.9-4.2,1.9-6.4,2.4
			c2-0.8,3.9-1.7,5.8-2.6c0.4-0.2,0.7-0.4,1.1-0.6c3.2-1.7,6.3-3.6,9.2-5.6c0.4-0.3,0.8-0.5,1.2-0.8c3.3-2.4,6.3-5.2,9.1-8.2
			c1.6-1.9,3.1-3.8,3.9-6.1c0.5-1.4,0.8-3.1-0.1-4.3c-1-1.3-2.8-1.6-4.4-1.7c-3.3-0.2-6.6,0.5-9.8,1.4c-0.5,0.1-0.9,0.3-1.4,0.4
			c-2.3,0.8-4.6,1.6-6.9,2.6c-0.4,0.2-0.8,0.4-1.2,0.5c-3.4,1.6-6.6,3.5-9.7,5.7c-0.2,0.1-0.3,0.2-0.5,0.4c-2.1,1.5-4,3.1-5.9,4.9
			c-0.3-0.3-0.7-0.6-1-1c4.8-4.1,10.2-7.5,15.8-10.4c0.4-0.2,0.9-0.5,1.3-0.7c2.5-1.3,5.1-2.4,7.7-3.4C47,86.8,47.5,86.6,47.9,86.5z
			"/>
		<path class="st1" d="M20.6,102.3c0.4,0.3,0.7,0.7,1.1,1c-2.4,2.5-4.7,5.2-6,8.4c-0.5,1.3-0.9,3,0,4.2c1,1.1,2.6,1.2,4,1.2
			c1,0,2.1-0.5,3.1,0.1c1.3,0.7,1.4,2.7,0.1,3.5c-0.8,0.5-1.7,0.3-2.5,0.2c-2.3-0.2-4.8-0.8-6.4-2.6c-1.4-1.5-1.7-3.8-1-5.7
			c0.9-2.9,2.8-5.3,4.8-7.5C18.6,104.2,19.6,103.2,20.6,102.3z"/>
	</g>
</g>
<g id="Layer_2_2_">
	<g id="Layer_1-2_1_">
		<path class="st0" d="M128.3,90.2c1.8-0.6,3.9,0,5.3,1.3c1.7,1.6,2.8,3.6,3.7,5.8c0.8,2.1,1.5,4.3,1.9,6.6
			c-0.5,0.1-0.9,0.3-1.4,0.5c-0.9-3.3-2.1-6.6-4.2-9.3c-0.9-1.1-2-2.2-3.5-2.2c-1.5,0.2-2.4,1.6-3.1,2.8c-0.6,0.9-0.7,2.2-1.7,2.7
			c-1,0.5-2.3,0.2-2.8-0.8c-0.1-0.2-0.2-0.3-0.2-0.5c-0.2-0.9,0.3-1.7,0.8-2.4C124.4,92.7,126,90.8,128.3,90.2z"/>
		<path class="st0" d="M107.9,102.8c2.5-0.8,5.1-0.6,7.6-0.2c5.1,0.9,9.9,2.8,14.5,5.1c-0.4,0.2-0.9,0.5-1.3,0.7l-0.3-0.2
			c-4.1-1.7-8.3-3.2-12.6-3.9c-2.6-0.4-5.3-0.7-7.7,0.3c-1.2,0.4-2.1,1.5-2.2,2.8c-0.1,2.3,1.2,4.3,2.4,6.1c1.4,1.9,2.9,3.7,4.6,5.3
			c0.3,0.3,0.7,0.6,1,1c1.8,1.7,3.7,3.2,5.7,4.6c-0.1-3.2,0-6.3,0.2-9.5c0.2-0.1,0.3-0.2,0.5-0.4c-0.1,3.5-0.1,7.1,0.3,10.6
			c3.1,2.1,6.3,4,9.7,5.6c-0.3,0.2-0.7,0.4-1.1,0.6c-2.9-1.4-5.7-3.1-8.5-4.8c0.4,4.5,1.3,8.9,2.8,13.1c1,2.4,2,4.8,4,6.6
			c0.9,0.8,2.3,1.4,3.5,0.8c1.7-0.7,2.8-2.3,3.6-3.8c1.2-2.1,2-4.3,2.7-6.6c0.1-0.5,0.3-1,0.3-1.5c-2.7-1-5.4-2.1-7.9-3.5
			c0.4-0.2,0.8-0.4,1.2-0.6c2.2,1.1,4.7,1.9,7,2.7c0.2-0.2,0.2-0.6,0.3-0.9c0.5-2.1,0.8-4.2,1-6.4l1-0.7c0.1,2.8-0.5,5.6-0.8,8.4
			c3.2,0.8,6.6,1.5,9.9,1c1.4-0.2,2.8-0.6,3.7-1.7c0.4-0.6,0.5-1.4,0.3-2.1c-0.3-1.5-1.2-2.7-2.1-3.9c-0.7-0.9-0.4-2.2,0.5-2.8
			c0.1,0,0.1-0.1,0.2-0.1c0.9-0.5,2.3-0.2,2.8,0.8c1,2,1.9,4.2,1.8,6.5c-0.1,1.8-1,3.4-2.4,4.3c-1.8,1.2-4,1.4-6.1,1.3
			c-3-0.2-6-0.9-8.9-1.9c-0.8,3.5-1.9,7.1-4,10.1c-1.2,1.6-3,3.2-5.1,3.1c-2.2,0-3.9-1.6-5.1-3.3c-1.9-2.8-3-6.1-3.8-9.4
			c-0.8-3.4-1.2-6.9-1.5-10.4c-2.3-1.5-4.6-3.2-6.7-5c-0.4-0.3-0.7-0.7-1.1-1c-2.8-2.5-5.4-5.3-6.9-8.8c-0.6-1.5-1-3.1-0.5-4.6
			C104.7,104.5,106.3,103.3,107.9,102.8z"/>
		<path class="st0" d="M138.1,105.6c0.4-0.1,0.9-0.3,1.4-0.4c0.5,2.9,0.9,5.9,1,8.8c1.6,1.2,3.3,2.4,4.7,3.8
			c-1.6-1.1-3.1-2.3-4.7-3.3c0.1,2.8,0.2,5.7,0,8.5c0,0.3-0.2,0.8,0.1,1.1c-0.4,0.3-0.8,0.5-1.2,0.8c0.1-3.3,0.3-6.5,0-9.8
			c-0.1-0.5,0.1-1.3-0.5-1.6c-2.9-1.8-5.9-3.5-9.1-4.9c0.4-0.2,0.8-0.4,1.2-0.5c2.8,1.5,5.5,3.2,8.2,5
			C139.1,110.6,138.7,108.1,138.1,105.6z"/>
		<path class="st1" d="M139.1,103.8c3.6-1.1,7.4-2,11.1-1.6c1.9,0.2,3.9,1,4.9,2.8c1,1.7,0.7,3.8-0.1,5.5c-1.2,2.9-3.3,5.3-5.4,7.6
			c-2.8,2.8-6,5.3-9.3,7.5l-1,0.7c-2.6,1.7-5.4,3.3-8.3,4.6c-0.4,0.2-0.8,0.4-1.2,0.6c-2.1,0.9-4.2,1.9-6.4,2.4
			c2-0.8,3.9-1.7,5.8-2.6c0.4-0.2,0.7-0.4,1.1-0.6c3.2-1.7,6.3-3.6,9.2-5.6c0.4-0.3,0.8-0.5,1.2-0.8c3.3-2.4,6.3-5.2,9.1-8.2
			c1.6-1.9,3.1-3.8,3.9-6.1c0.5-1.4,0.8-3.1-0.1-4.3c-1-1.3-2.8-1.6-4.4-1.7c-3.3-0.2-6.6,0.5-9.8,1.4c-0.5,0.1-0.9,0.3-1.4,0.4
			c-2.3,0.8-4.6,1.6-6.9,2.6c-0.4,0.2-0.8,0.4-1.2,0.5c-3.4,1.6-6.6,3.5-9.7,5.7c-0.2,0.1-0.3,0.2-0.5,0.4c-2.1,1.5-4,3.1-5.9,4.9
			c-0.3-0.3-0.7-0.6-1-1c4.8-4.1,10.2-7.5,15.8-10.4c0.4-0.2,0.9-0.5,1.3-0.7c2.5-1.3,5.1-2.4,7.7-3.4
			C138.2,104.1,138.7,103.9,139.1,103.8z"/>
		<path class="st1" d="M111.8,119.7c0.4,0.3,0.7,0.7,1.1,1c-2.4,2.5-4.7,5.2-6,8.4c-0.5,1.3-0.9,3,0,4.2c1,1.1,2.6,1.2,4,1.2
			c1,0,2.1-0.5,3.1,0.1c1.3,0.7,1.4,2.7,0.1,3.5c-0.8,0.5-1.7,0.3-2.5,0.2c-2.3-0.2-4.8-0.8-6.4-2.6c-1.4-1.5-1.7-3.8-1-5.7
			c0.9-2.9,2.8-5.3,4.8-7.5C109.8,121.5,110.8,120.6,111.8,119.7z"/>
	</g>
</g>
<g id="Layer_2_3_">
	<g id="Layer_1-2_2_">
		<path class="st0" d="M215.1,73.2c1.8-0.6,3.9,0,5.3,1.3c1.7,1.6,2.8,3.6,3.7,5.8c0.8,2.1,1.5,4.3,1.9,6.6
			c-0.5,0.1-0.9,0.3-1.4,0.5c-0.9-3.3-2.1-6.6-4.2-9.3c-0.9-1.1-2-2.2-3.5-2.2c-1.5,0.2-2.4,1.6-3.1,2.8c-0.6,0.9-0.7,2.2-1.7,2.7
			c-1,0.5-2.3,0.2-2.8-0.8c-0.1-0.2-0.2-0.3-0.2-0.5c-0.2-0.9,0.3-1.7,0.8-2.4C211.2,75.7,212.8,73.9,215.1,73.2z"/>
		<path class="st0" d="M194.7,85.8c2.5-0.8,5.1-0.6,7.6-0.2c5.1,0.9,9.9,2.8,14.5,5.1c-0.4,0.2-0.9,0.5-1.3,0.7l-0.3-0.2
			c-4.1-1.7-8.3-3.2-12.6-3.9c-2.6-0.4-5.3-0.7-7.7,0.3c-1.2,0.4-2.1,1.5-2.2,2.8c-0.1,2.3,1.2,4.3,2.4,6.1c1.4,1.9,2.9,3.7,4.6,5.3
			c0.3,0.3,0.7,0.6,1,1c1.8,1.7,3.7,3.2,5.7,4.6c-0.1-3.2,0-6.3,0.2-9.5c0.2-0.1,0.3-0.2,0.5-0.4c-0.1,3.5-0.1,7.1,0.3,10.6
			c3.1,2.1,6.3,4,9.7,5.6c-0.3,0.2-0.7,0.4-1.1,0.6c-2.9-1.4-5.7-3.1-8.5-4.8c0.4,4.5,1.3,8.9,2.8,13.1c1,2.4,2,4.8,4,6.6
			c0.9,0.8,2.3,1.4,3.5,0.8c1.7-0.7,2.8-2.3,3.6-3.8c1.2-2.1,2-4.3,2.7-6.6c0.1-0.5,0.3-1,0.3-1.5c-2.7-1-5.4-2.1-7.9-3.5
			c0.4-0.2,0.8-0.4,1.2-0.6c2.2,1.1,4.7,1.9,7,2.7c0.2-0.2,0.2-0.6,0.3-0.9c0.5-2.1,0.8-4.2,1-6.4l1-0.7c0.1,2.8-0.5,5.6-0.8,8.4
			c3.2,0.8,6.6,1.5,9.9,1c1.4-0.2,2.8-0.6,3.7-1.7c0.4-0.6,0.5-1.4,0.3-2.1c-0.3-1.5-1.2-2.7-2.1-3.9c-0.7-0.9-0.4-2.2,0.5-2.8
			c0.1,0,0.1-0.1,0.2-0.1c0.9-0.5,2.3-0.2,2.8,0.8c1,2,1.9,4.2,1.8,6.5c-0.1,1.8-1,3.4-2.4,4.3c-1.8,1.2-4,1.4-6.1,1.3
			c-3-0.2-6-0.9-8.9-1.9c-0.8,3.5-1.9,7.1-4,10.1c-1.2,1.6-3,3.2-5.1,3.1c-2.2,0-3.9-1.6-5.1-3.3c-1.9-2.8-3-6.1-3.8-9.4
			c-0.8-3.4-1.2-6.9-1.5-10.4c-2.3-1.5-4.6-3.2-6.7-5c-0.4-0.3-0.7-0.7-1.1-1c-2.8-2.5-5.4-5.3-6.9-8.8c-0.6-1.5-1-3.1-0.5-4.6
			C191.5,87.5,193.1,86.3,194.7,85.8z"/>
		<path class="st0" d="M224.9,88.6c0.4-0.1,0.9-0.3,1.4-0.4c0.5,2.9,0.9,5.9,1,8.8c1.6,1.2,3.3,2.4,4.7,3.8
			c-1.6-1.1-3.1-2.3-4.7-3.3c0.1,2.8,0.2,5.7,0,8.5c0,0.3-0.2,0.8,0.1,1.1c-0.4,0.3-0.8,0.5-1.2,0.8c0.1-3.3,0.3-6.5,0-9.8
			c-0.1-0.5,0.1-1.3-0.5-1.6c-2.9-1.8-5.9-3.5-9.1-4.9c0.4-0.2,0.8-0.4,1.2-0.5c2.8,1.5,5.5,3.2,8.2,5
			C225.9,93.7,225.5,91.1,224.9,88.6z"/>
		<path class="st1" d="M225.9,86.8c3.6-1.1,7.4-2,11.1-1.6c1.9,0.2,3.9,1,4.9,2.8c1,1.7,0.7,3.8-0.1,5.5c-1.2,2.9-3.3,5.3-5.4,7.6
			c-2.8,2.8-6,5.3-9.3,7.5l-1,0.7c-2.6,1.7-5.4,3.3-8.3,4.6c-0.4,0.2-0.8,0.4-1.2,0.6c-2.1,0.9-4.2,1.9-6.4,2.4
			c2-0.8,3.9-1.7,5.8-2.6c0.4-0.2,0.7-0.4,1.1-0.6c3.2-1.7,6.3-3.6,9.2-5.6c0.4-0.3,0.8-0.5,1.2-0.8c3.3-2.4,6.3-5.2,9.1-8.2
			c1.6-1.9,3.1-3.8,3.9-6.1c0.5-1.4,0.8-3.1-0.1-4.3c-1-1.3-2.8-1.6-4.4-1.7c-3.3-0.2-6.6,0.5-9.8,1.4c-0.5,0.1-0.9,0.3-1.4,0.4
			c-2.3,0.8-4.6,1.6-6.9,2.6c-0.4,0.2-0.8,0.4-1.2,0.5c-3.4,1.6-6.6,3.5-9.7,5.7c-0.2,0.1-0.3,0.2-0.5,0.4c-2.1,1.5-4,3.1-5.9,4.9
			c-0.3-0.3-0.7-0.6-1-1c4.8-4.1,10.2-7.5,15.8-10.4c0.4-0.2,0.9-0.5,1.3-0.7c2.5-1.3,5.1-2.4,7.7-3.4C225,87.1,225.5,87,225.9,86.8
			z"/>
		<path class="st1" d="M198.6,102.7c0.4,0.3,0.7,0.7,1.1,1c-2.4,2.5-4.7,5.2-6,8.4c-0.5,1.3-0.9,3,0,4.2c1,1.1,2.6,1.2,4,1.2
			c1,0,2.1-0.5,3.1,0.1c1.3,0.7,1.4,2.7,0.1,3.5c-0.8,0.5-1.7,0.3-2.5,0.2c-2.3-0.2-4.8-0.8-6.4-2.6c-1.4-1.5-1.7-3.8-1-5.7
			c0.9-2.9,2.8-5.3,4.8-7.5C196.6,104.5,197.6,103.6,198.6,102.7z"/>
	</g>
</g>
<g id="Layer_2_4_">
	<g id="Layer_1-2_3_">
		<path class="st0" d="M67,169.9c1.8-0.6,3.9,0,5.3,1.3c1.7,1.6,2.8,3.6,3.7,5.8c0.8,2.1,1.5,4.3,1.9,6.6c-0.5,0.1-0.9,0.3-1.4,0.5
			c-0.9-3.3-2.1-6.6-4.2-9.3c-0.9-1.1-2-2.2-3.5-2.2c-1.5,0.2-2.4,1.6-3.1,2.8c-0.6,0.9-0.7,2.2-1.7,2.7c-1,0.5-2.3,0.2-2.8-0.8
			c-0.1-0.2-0.2-0.3-0.2-0.5c-0.2-0.9,0.3-1.7,0.8-2.4C63.1,172.4,64.7,170.5,67,169.9z"/>
		<path class="st0" d="M46.6,182.5c2.5-0.8,5.1-0.6,7.6-0.2c5.1,0.9,9.9,2.8,14.5,5.1c-0.4,0.2-0.9,0.5-1.3,0.7l-0.3-0.2
			c-4.1-1.7-8.3-3.2-12.6-3.9c-2.6-0.4-5.3-0.7-7.7,0.3c-1.2,0.4-2.1,1.5-2.2,2.8c-0.1,2.3,1.2,4.3,2.4,6.1c1.4,1.9,2.9,3.7,4.6,5.3
			c0.3,0.3,0.7,0.6,1,1c1.8,1.7,3.7,3.2,5.7,4.6c-0.1-3.2,0-6.3,0.2-9.5c0.2-0.1,0.3-0.2,0.5-0.4c-0.1,3.5-0.1,7.1,0.3,10.6
			c3.1,2.1,6.3,4,9.7,5.6c-0.3,0.2-0.7,0.4-1.1,0.6c-2.9-1.4-5.7-3.1-8.5-4.8c0.4,4.5,1.3,8.9,2.8,13.1c1,2.4,2,4.8,4,6.6
			c0.9,0.8,2.3,1.4,3.5,0.8c1.7-0.7,2.8-2.3,3.6-3.8c1.2-2.1,2-4.3,2.7-6.6c0.1-0.5,0.3-1,0.3-1.5c-2.7-1-5.4-2.1-7.9-3.5
			c0.4-0.2,0.8-0.4,1.2-0.6c2.2,1.1,4.7,1.9,7,2.7c0.2-0.2,0.2-0.6,0.3-0.9c0.5-2.1,0.8-4.2,1-6.4l1-0.7c0.1,2.8-0.5,5.6-0.8,8.4
			c3.2,0.8,6.6,1.5,9.9,1c1.4-0.2,2.8-0.6,3.7-1.7c0.4-0.6,0.5-1.4,0.3-2.1c-0.3-1.5-1.2-2.7-2.1-3.9c-0.7-0.9-0.4-2.2,0.5-2.8
			c0.1,0,0.1-0.1,0.2-0.1c0.9-0.5,2.3-0.2,2.8,0.8c1,2,1.9,4.2,1.8,6.5c-0.1,1.8-1,3.4-2.4,4.3c-1.8,1.2-4,1.4-6.1,1.3
			c-3-0.2-6-0.9-8.9-1.9c-0.8,3.5-1.9,7.1-4,10.1c-1.2,1.6-3,3.2-5.1,3.1c-2.2,0-3.9-1.6-5.1-3.3c-1.9-2.8-3-6.1-3.8-9.4
			c-0.8-3.4-1.2-6.9-1.5-10.4c-2.3-1.5-4.6-3.2-6.7-5c-0.4-0.3-0.7-0.7-1.1-1c-2.8-2.5-5.4-5.3-6.9-8.8c-0.6-1.5-1-3.1-0.5-4.6
			C43.5,184.2,45,183,46.6,182.5z"/>
		<path class="st0" d="M76.8,185.3c0.4-0.1,0.9-0.3,1.4-0.4c0.5,2.9,0.9,5.9,1,8.8c1.6,1.2,3.3,2.4,4.7,3.8
			c-1.6-1.1-3.1-2.3-4.7-3.3c0.1,2.8,0.2,5.7,0,8.5c0,0.3-0.2,0.8,0.1,1.1c-0.4,0.3-0.8,0.5-1.2,0.8c0.1-3.3,0.3-6.5,0-9.8
			c-0.1-0.5,0.1-1.3-0.5-1.6c-2.9-1.8-5.9-3.5-9.1-4.9c0.4-0.2,0.8-0.4,1.2-0.5c2.8,1.5,5.5,3.2,8.2,5
			C77.8,190.3,77.4,187.8,76.8,185.3z"/>
		<path class="st1" d="M77.8,183.5c3.6-1.1,7.4-2,11.1-1.6c1.9,0.2,3.9,1,4.9,2.8c1,1.7,0.7,3.8-0.1,5.5c-1.2,2.9-3.3,5.3-5.4,7.6
			c-2.8,2.8-6,5.3-9.3,7.5l-1,0.7c-2.6,1.7-5.4,3.3-8.3,4.6c-0.4,0.2-0.8,0.4-1.2,0.6c-2.1,0.9-4.2,1.9-6.4,2.4
			c2-0.8,3.9-1.7,5.8-2.6c0.4-0.2,0.7-0.4,1.1-0.6c3.2-1.7,6.3-3.6,9.2-5.6c0.4-0.3,0.8-0.5,1.2-0.8c3.3-2.4,6.3-5.2,9.1-8.2
			c1.6-1.9,3.1-3.8,3.9-6.1c0.5-1.4,0.8-3.1-0.1-4.3c-1-1.3-2.8-1.6-4.4-1.7c-3.3-0.2-6.6,0.5-9.8,1.4c-0.5,0.1-0.9,0.3-1.4,0.4
			c-2.3,0.8-4.6,1.6-6.9,2.6c-0.4,0.2-0.8,0.4-1.2,0.5c-3.4,1.6-6.6,3.5-9.7,5.7c-0.2,0.1-0.3,0.2-0.5,0.4c-2.1,1.5-4,3.1-5.9,4.9
			c-0.3-0.3-0.7-0.6-1-1c4.8-4.1,10.2-7.5,15.8-10.4c0.4-0.2,0.9-0.5,1.3-0.7c2.5-1.3,5.1-2.4,7.7-3.4
			C76.9,183.8,77.4,183.6,77.8,183.5z"/>
		<path class="st1" d="M50.5,199.4c0.4,0.3,0.7,0.7,1.1,1c-2.4,2.5-4.7,5.2-6,8.4c-0.5,1.3-0.9,3,0,4.2c1,1.1,2.6,1.2,4,1.2
			c1,0,2.1-0.5,3.1,0.1c1.3,0.7,1.4,2.7,0.1,3.5c-0.8,0.5-1.7,0.3-2.5,0.2c-2.3-0.2-4.8-0.8-6.4-2.6c-1.4-1.5-1.7-3.8-1-5.7
			c0.9-2.9,2.8-5.3,4.8-7.5C48.6,201.2,49.5,200.3,50.5,199.4z"/>
	</g>
</g>
<g id="Layer_2_5_">
	<g id="Layer_1-2_4_">
		<path class="st0" d="M147.8,190.1c1.8-0.6,3.9,0,5.3,1.3c1.7,1.6,2.8,3.6,3.7,5.8c0.8,2.1,1.5,4.3,1.9,6.6
			c-0.5,0.1-0.9,0.3-1.4,0.5c-0.9-3.3-2.1-6.6-4.2-9.3c-0.9-1.1-2-2.2-3.5-2.2c-1.5,0.2-2.4,1.6-3.1,2.8c-0.6,0.9-0.7,2.2-1.7,2.7
			c-1,0.5-2.3,0.2-2.8-0.8c-0.1-0.2-0.2-0.3-0.2-0.5c-0.2-0.9,0.3-1.7,0.8-2.4C143.9,192.7,145.5,190.8,147.8,190.1z"/>
		<path class="st0" d="M127.4,202.7c2.5-0.8,5.1-0.6,7.6-0.2c5.1,0.9,9.9,2.8,14.5,5.1c-0.4,0.2-0.9,0.5-1.3,0.7L148,208
			c-4.1-1.7-8.3-3.2-12.6-3.9c-2.6-0.4-5.3-0.7-7.7,0.3c-1.2,0.4-2.1,1.5-2.2,2.8c-0.1,2.3,1.2,4.3,2.4,6.1c1.4,1.9,2.9,3.7,4.6,5.3
			c0.3,0.3,0.7,0.6,1,1c1.8,1.7,3.7,3.2,5.7,4.6c-0.1-3.2,0-6.3,0.2-9.5c0.2-0.1,0.3-0.2,0.5-0.4c-0.1,3.5-0.1,7.1,0.3,10.6
			c3.1,2.1,6.3,4,9.7,5.6c-0.3,0.2-0.7,0.4-1.1,0.6c-2.9-1.4-5.7-3.1-8.5-4.8c0.4,4.5,1.3,8.9,2.8,13.1c1,2.4,2,4.8,4,6.6
			c0.9,0.8,2.3,1.4,3.5,0.8c1.7-0.7,2.8-2.3,3.6-3.8c1.2-2.1,2-4.3,2.7-6.6c0.1-0.5,0.3-1,0.3-1.5c-2.7-1-5.4-2.1-7.9-3.5
			c0.4-0.2,0.8-0.4,1.2-0.6c2.2,1.1,4.7,1.9,7,2.7c0.2-0.2,0.2-0.6,0.3-0.9c0.5-2.1,0.8-4.2,1-6.4l1-0.7c0.1,2.8-0.5,5.6-0.8,8.4
			c3.2,0.8,6.6,1.5,9.9,1c1.4-0.2,2.8-0.6,3.7-1.7c0.4-0.6,0.5-1.4,0.3-2.1c-0.3-1.5-1.2-2.7-2.1-3.9c-0.7-0.9-0.4-2.2,0.5-2.8
			c0.1,0,0.1-0.1,0.2-0.1c0.9-0.5,2.3-0.2,2.8,0.8c1,2,1.9,4.2,1.8,6.5c-0.1,1.8-1,3.4-2.4,4.3c-1.8,1.2-4,1.4-6.1,1.3
			c-3-0.2-6-0.9-8.9-1.9c-0.8,3.5-1.9,7.1-4,10.1c-1.2,1.6-3,3.2-5.1,3.1c-2.2,0-3.9-1.6-5.1-3.3c-1.9-2.8-3-6.1-3.8-9.4
			c-0.8-3.4-1.2-6.9-1.5-10.4c-2.3-1.5-4.6-3.2-6.7-5c-0.4-0.3-0.7-0.7-1.1-1c-2.8-2.5-5.4-5.3-6.9-8.8c-0.6-1.5-1-3.1-0.5-4.6
			C124.3,204.5,125.8,203.3,127.4,202.7z"/>
		<path class="st0" d="M157.6,205.6c0.4-0.1,0.9-0.3,1.4-0.4c0.5,2.9,0.9,5.9,1,8.8c1.6,1.2,3.3,2.4,4.7,3.8
			c-1.6-1.1-3.1-2.3-4.7-3.3c0.1,2.8,0.2,5.7,0,8.5c0,0.3-0.2,0.8,0.1,1.1c-0.4,0.3-0.8,0.5-1.2,0.8c0.1-3.3,0.3-6.5,0-9.8
			c-0.1-0.5,0.1-1.3-0.5-1.6c-2.9-1.8-5.9-3.5-9.1-4.9c0.4-0.2,0.8-0.4,1.2-0.5c2.8,1.5,5.5,3.2,8.2,5
			C158.6,210.6,158.2,208.1,157.6,205.6z"/>
		<path class="st1" d="M158.7,203.8c3.6-1.1,7.4-2,11.1-1.6c1.9,0.2,3.9,1,4.9,2.8c1,1.7,0.7,3.8-0.1,5.5c-1.2,2.9-3.3,5.3-5.4,7.6
			c-2.8,2.8-6,5.3-9.3,7.5l-1,0.7c-2.6,1.7-5.4,3.3-8.3,4.6c-0.4,0.2-0.8,0.4-1.2,0.6c-2.1,0.9-4.2,1.9-6.4,2.4
			c2-0.8,3.9-1.7,5.8-2.6c0.4-0.2,0.7-0.4,1.1-0.6c3.2-1.7,6.3-3.6,9.2-5.6c0.4-0.3,0.8-0.5,1.2-0.8c3.3-2.4,6.3-5.2,9.1-8.2
			c1.6-1.9,3.1-3.8,3.9-6.1c0.5-1.4,0.8-3.1-0.1-4.3c-1-1.3-2.8-1.6-4.4-1.7c-3.3-0.2-6.6,0.5-9.8,1.4c-0.5,0.1-0.9,0.3-1.4,0.4
			c-2.3,0.8-4.6,1.6-6.9,2.6c-0.4,0.2-0.8,0.4-1.2,0.5c-3.4,1.6-6.6,3.5-9.7,5.7c-0.2,0.1-0.3,0.2-0.5,0.4c-2.1,1.5-4,3.1-5.9,4.9
			c-0.3-0.3-0.7-0.6-1-1c4.8-4.1,10.2-7.5,15.8-10.4c0.4-0.2,0.9-0.5,1.3-0.7c2.5-1.3,5.1-2.4,7.7-3.4
			C157.7,204.1,158.2,203.9,158.7,203.8z"/>
		<path class="st1" d="M131.4,219.6c0.4,0.3,0.7,0.7,1.1,1c-2.4,2.5-4.7,5.2-6,8.4c-0.5,1.3-0.9,3,0,4.2c1,1.1,2.6,1.2,4,1.2
			c1,0,2.1-0.5,3.1,0.1c1.3,0.7,1.4,2.7,0.1,3.5c-0.8,0.5-1.7,0.3-2.5,0.2c-2.3-0.2-4.8-0.8-6.4-2.6c-1.4-1.5-1.7-3.8-1-5.7
			c0.9-2.9,2.8-5.3,4.8-7.5C129.4,221.5,130.3,220.5,131.4,219.6z"/>
	</g>
</g>
<g id="Layer_2_6_">
	<g id="Layer_1-2_5_">
		<path class="st0" d="M127,1.8c1.8-0.6,3.9,0,5.3,1.3c1.7,1.6,2.8,3.6,3.7,5.8c0.8,2.1,1.5,4.3,1.9,6.6c-0.5,0.1-0.9,0.3-1.4,0.5
			c-0.9-3.3-2.1-6.6-4.2-9.3c-0.9-1.1-2-2.2-3.5-2.2c-1.5,0.2-2.4,1.6-3.1,2.8c-0.6,0.9-0.7,2.2-1.7,2.7c-1,0.5-2.3,0.2-2.8-0.8
			C121,9,121,8.8,120.9,8.6c-0.2-0.9,0.3-1.7,0.8-2.4C123.1,4.4,124.7,2.5,127,1.8z"/>
		<path class="st0" d="M106.6,14.4c2.5-0.8,5.1-0.6,7.6-0.2c5.1,0.9,9.9,2.8,14.5,5.1c-0.4,0.2-0.9,0.5-1.3,0.7l-0.3-0.2
			c-4.1-1.7-8.3-3.2-12.6-3.9c-2.6-0.4-5.3-0.7-7.7,0.3c-1.2,0.4-2.1,1.5-2.2,2.8c-0.1,2.3,1.2,4.3,2.4,6.1c1.4,1.9,2.9,3.7,4.6,5.3
			c0.3,0.3,0.7,0.6,1,1c1.8,1.7,3.7,3.2,5.7,4.6c-0.1-3.2,0-6.3,0.2-9.5c0.2-0.1,0.3-0.2,0.5-0.4c-0.1,3.5-0.1,7.1,0.3,10.6
			c3.1,2.1,6.3,4,9.7,5.6c-0.3,0.2-0.7,0.4-1.1,0.6c-2.9-1.4-5.7-3.1-8.5-4.8c0.4,4.5,1.3,8.9,2.8,13.1c1,2.4,2,4.8,4,6.6
			c0.9,0.8,2.3,1.4,3.5,0.8c1.7-0.7,2.8-2.3,3.6-3.8c1.2-2.1,2-4.3,2.7-6.6c0.1-0.5,0.3-1,0.3-1.5c-2.7-1-5.4-2.1-7.9-3.5
			c0.4-0.2,0.8-0.4,1.2-0.6c2.2,1.1,4.7,1.9,7,2.7c0.2-0.2,0.2-0.6,0.3-0.9c0.5-2.1,0.8-4.2,1-6.4l1-0.7c0.1,2.8-0.5,5.6-0.8,8.4
			c3.2,0.8,6.6,1.5,9.9,1c1.4-0.2,2.8-0.6,3.7-1.7c0.4-0.6,0.5-1.4,0.3-2.1c-0.3-1.5-1.2-2.7-2.1-3.9c-0.7-0.9-0.4-2.2,0.5-2.8
			c0.1,0,0.1-0.1,0.2-0.1c0.9-0.5,2.3-0.2,2.8,0.8c1,2,1.9,4.2,1.8,6.5c-0.1,1.8-1,3.4-2.4,4.3c-1.8,1.2-4,1.4-6.1,1.3
			c-3-0.2-6-0.9-8.9-1.9c-0.8,3.5-1.9,7.1-4,10.1c-1.2,1.6-3,3.2-5.1,3.1c-2.2,0-3.9-1.6-5.1-3.3c-1.9-2.8-3-6.1-3.8-9.4
			c-0.8-3.4-1.2-6.9-1.5-10.4c-2.3-1.5-4.6-3.2-6.7-5c-0.4-0.3-0.7-0.7-1.1-1c-2.8-2.5-5.4-5.3-6.9-8.8c-0.6-1.5-1-3.1-0.5-4.6
			C103.5,16.2,105,14.9,106.6,14.4z"/>
		<path class="st0" d="M136.8,17.3c0.4-0.1,0.9-0.3,1.4-0.4c0.5,2.9,0.9,5.9,1,8.8c1.6,1.2,3.3,2.4,4.7,3.8
			c-1.6-1.1-3.1-2.3-4.7-3.3c0.1,2.8,0.2,5.7,0,8.5c0,0.3-0.2,0.8,0.1,1.1c-0.4,0.3-0.8,0.5-1.2,0.8c0.1-3.3,0.3-6.5,0-9.8
			c-0.1-0.5,0.1-1.3-0.5-1.6c-2.9-1.8-5.9-3.5-9.1-4.9c0.4-0.2,0.8-0.4,1.2-0.5c2.8,1.5,5.5,3.2,8.2,5
			C137.8,22.3,137.4,19.8,136.8,17.3z"/>
		<path class="st1" d="M137.8,15.5c3.6-1.1,7.4-2,11.1-1.6c1.9,0.2,3.9,1,4.9,2.8c1,1.7,0.7,3.8-0.1,5.5c-1.2,2.9-3.3,5.3-5.4,7.6
			c-2.8,2.8-6,5.3-9.3,7.5l-1,0.7c-2.6,1.7-5.4,3.3-8.3,4.6c-0.4,0.2-0.8,0.4-1.2,0.6c-2.1,0.9-4.2,1.9-6.4,2.4
			c2-0.8,3.9-1.7,5.8-2.6c0.4-0.2,0.7-0.4,1.1-0.6c3.2-1.7,6.3-3.6,9.2-5.6c0.4-0.3,0.8-0.5,1.2-0.8c3.3-2.4,6.3-5.2,9.1-8.2
			c1.6-1.9,3.1-3.8,3.9-6.1c0.5-1.4,0.8-3.1-0.1-4.3c-1-1.3-2.8-1.6-4.4-1.7c-3.3-0.2-6.6,0.5-9.8,1.4c-0.5,0.1-0.9,0.3-1.4,0.4
			c-2.3,0.8-4.6,1.6-6.9,2.6c-0.4,0.2-0.8,0.4-1.2,0.5c-3.4,1.6-6.6,3.5-9.7,5.7c-0.2,0.1-0.3,0.2-0.5,0.4c-2.1,1.5-4,3.1-5.9,4.9
			c-0.3-0.3-0.7-0.6-1-1c4.8-4.1,10.2-7.5,15.8-10.4c0.4-0.2,0.9-0.5,1.3-0.7c2.5-1.3,5.1-2.4,7.7-3.4
			C136.9,15.8,137.4,15.6,137.8,15.5z"/>
		<path class="st1" d="M110.5,31.3c0.4,0.3,0.7,0.7,1.1,1c-2.4,2.5-4.7,5.2-6,8.4c-0.5,1.3-0.9,3,0,4.2c1,1.1,2.6,1.2,4,1.2
			c1,0,2.1-0.5,3.1,0.1c1.3,0.7,1.4,2.7,0.1,3.5c-0.8,0.5-1.7,0.3-2.5,0.2c-2.3-0.2-4.8-0.8-6.4-2.6c-1.4-1.5-1.7-3.8-1-5.7
			c0.9-2.9,2.8-5.3,4.8-7.5C108.6,33.2,109.5,32.2,110.5,31.3z"/>
	</g>
</g>
<g id="Layer_2_7_">
	<g id="Layer_1-2_6_">
		<path class="st0" d="M248.6,169.7c1.8-0.6,3.9,0,5.3,1.3c1.7,1.6,2.8,3.6,3.7,5.8c0.8,2.1,1.5,4.3,1.9,6.6
			c-0.5,0.1-0.9,0.3-1.4,0.5c-0.9-3.3-2.1-6.6-4.2-9.3c-0.9-1.1-2-2.2-3.5-2.2c-1.5,0.2-2.4,1.6-3.1,2.8c-0.6,0.9-0.7,2.2-1.7,2.7
			c-1,0.5-2.3,0.2-2.8-0.8c-0.1-0.2-0.2-0.3-0.2-0.5c-0.2-0.9,0.3-1.7,0.8-2.4C244.7,172.2,246.4,170.4,248.6,169.7z"/>
		<path class="st0" d="M228.2,182.3c2.5-0.8,5.1-0.6,7.6-0.2c5.1,0.9,9.9,2.8,14.5,5.1c-0.4,0.2-0.9,0.5-1.3,0.7l-0.3-0.2
			c-4.1-1.7-8.3-3.2-12.6-3.9c-2.6-0.4-5.3-0.7-7.7,0.3c-1.2,0.4-2.1,1.5-2.2,2.8c-0.1,2.3,1.2,4.3,2.4,6.1c1.4,1.9,2.9,3.7,4.6,5.3
			c0.3,0.3,0.7,0.6,1,1c1.8,1.7,3.7,3.2,5.7,4.6c-0.1-3.2,0-6.3,0.2-9.5c0.2-0.1,0.3-0.2,0.5-0.4c-0.1,3.5-0.1,7.1,0.3,10.6
			c3.1,2.1,6.3,4,9.7,5.6c-0.3,0.2-0.7,0.4-1.1,0.6c-2.9-1.4-5.7-3.1-8.5-4.8c0.4,4.5,1.3,8.9,2.8,13.1c1,2.4,2,4.8,4,6.6
			c0.9,0.8,2.3,1.4,3.5,0.8c1.7-0.7,2.8-2.3,3.6-3.8c1.2-2.1,2-4.3,2.7-6.6c0.1-0.5,0.3-1,0.3-1.5c-2.7-1-5.4-2.1-7.9-3.5
			c0.4-0.2,0.8-0.4,1.2-0.6c2.2,1.1,4.7,1.9,7,2.7c0.2-0.2,0.2-0.6,0.3-0.9c0.5-2.1,0.8-4.2,1-6.4l1-0.7c0.1,2.8-0.5,5.6-0.8,8.4
			c3.2,0.8,6.6,1.5,9.9,1c1.4-0.2,2.8-0.6,3.7-1.7c0.4-0.6,0.5-1.4,0.3-2.1c-0.3-1.5-1.2-2.7-2.1-3.9c-0.7-0.9-0.4-2.2,0.5-2.8
			c0.1,0,0.1-0.1,0.2-0.1c0.9-0.5,2.3-0.2,2.8,0.8c1,2,1.9,4.2,1.8,6.5c-0.1,1.8-1,3.4-2.4,4.3c-1.8,1.2-4,1.4-6.1,1.3
			c-3-0.2-6-0.9-8.9-1.9c-0.8,3.5-1.9,7.1-4,10.1c-1.2,1.6-3,3.2-5.1,3.1c-2.2,0-3.9-1.6-5.1-3.3c-1.9-2.8-3-6.1-3.8-9.4
			c-0.8-3.4-1.2-6.9-1.5-10.4c-2.3-1.5-4.6-3.2-6.7-5c-0.4-0.3-0.7-0.7-1.1-1c-2.8-2.5-5.4-5.3-6.9-8.8c-0.6-1.5-1-3.1-0.5-4.6
			C225.1,184,226.6,182.8,228.2,182.3z"/>
		<path class="st0" d="M258.4,185.1c0.4-0.1,0.9-0.3,1.4-0.4c0.5,2.9,0.9,5.9,1,8.8c1.6,1.2,3.3,2.4,4.7,3.8
			c-1.6-1.1-3.1-2.3-4.7-3.3c0.1,2.8,0.2,5.7,0,8.5c0,0.3-0.2,0.8,0.1,1.1c-0.4,0.3-0.8,0.5-1.2,0.8c0.1-3.3,0.3-6.5,0-9.8
			c-0.1-0.5,0.1-1.3-0.5-1.6c-2.9-1.8-5.9-3.5-9.1-4.9c0.4-0.2,0.8-0.4,1.2-0.5c2.8,1.5,5.5,3.2,8.2,5
			C259.5,190.2,259.1,187.6,258.4,185.1z"/>
		<path class="st1" d="M259.5,183.3c3.6-1.1,7.4-2,11.1-1.6c1.9,0.2,3.9,1,4.9,2.8c1,1.7,0.7,3.8-0.1,5.5c-1.2,2.9-3.3,5.3-5.4,7.6
			c-2.8,2.8-6,5.3-9.3,7.5l-1,0.7c-2.6,1.7-5.4,3.3-8.3,4.6c-0.4,0.2-0.8,0.4-1.2,0.6c-2.1,0.9-4.2,1.9-6.4,2.4
			c2-0.8,3.9-1.7,5.8-2.6c0.4-0.2,0.7-0.4,1.1-0.6c3.2-1.7,6.3-3.6,9.2-5.6c0.4-0.3,0.8-0.5,1.2-0.8c3.3-2.4,6.3-5.2,9.1-8.2
			c1.6-1.9,3.1-3.8,3.9-6.1c0.5-1.4,0.8-3.1-0.1-4.3c-1-1.3-2.8-1.6-4.4-1.7c-3.3-0.2-6.6,0.5-9.8,1.4c-0.5,0.1-0.9,0.3-1.4,0.4
			c-2.3,0.8-4.6,1.6-6.9,2.6c-0.4,0.2-0.8,0.4-1.2,0.5c-3.4,1.6-6.6,3.5-9.7,5.7c-0.2,0.1-0.3,0.2-0.5,0.4c-2.1,1.5-4,3.1-5.9,4.9
			c-0.3-0.3-0.7-0.6-1-1c4.8-4.1,10.2-7.5,15.8-10.4c0.4-0.2,0.9-0.5,1.3-0.7c2.5-1.3,5.1-2.4,7.7-3.4
			C258.6,183.6,259,183.5,259.5,183.3z"/>
		<path class="st1" d="M232.2,199.2c0.4,0.3,0.7,0.7,1.1,1c-2.4,2.5-4.7,5.2-6,8.4c-0.5,1.3-0.9,3,0,4.2c1,1.1,2.6,1.2,4,1.2
			c1,0,2.1-0.5,3.1,0.1c1.3,0.7,1.4,2.7,0.1,3.5c-0.8,0.5-1.7,0.3-2.5,0.2c-2.3-0.2-4.8-0.8-6.4-2.6c-1.4-1.5-1.7-3.8-1-5.7
			c0.9-2.9,2.8-5.3,4.8-7.5C230.2,201,231.2,200.1,232.2,199.2z"/>
	</g>
</g>
<g id="Layer_2_8_">
	<g id="Layer_1-2_7_">
		<path class="st0" d="M-10.9,169.8c1.8-0.6,3.9,0,5.3,1.3c1.7,1.6,2.8,3.6,3.7,5.8c0.8,2.1,1.5,4.3,1.9,6.6
			c-0.5,0.1-0.9,0.3-1.4,0.5c-0.9-3.3-2.1-6.6-4.2-9.3c-0.9-1.1-2-2.2-3.5-2.2c-1.5,0.2-2.4,1.6-3.1,2.8c-0.6,0.9-0.7,2.2-1.7,2.7
			c-1,0.5-2.3,0.2-2.8-0.8c-0.1-0.2-0.2-0.3-0.2-0.5c-0.2-0.9,0.3-1.7,0.8-2.4C-14.8,172.4-13.2,170.5-10.9,169.8z"/>
		<path class="st0" d="M-31.3,182.4c2.5-0.8,5.1-0.6,7.6-0.2c5.1,0.9,9.9,2.8,14.5,5.1c-0.4,0.2-0.9,0.5-1.3,0.7l-0.3-0.2
			c-4.1-1.7-8.3-3.2-12.6-3.9c-2.6-0.4-5.3-0.7-7.7,0.3c-1.2,0.4-2.1,1.5-2.2,2.8c-0.1,2.3,1.2,4.3,2.4,6.1c1.4,1.9,2.9,3.7,4.6,5.3
			c0.3,0.3,0.7,0.6,1,1c1.8,1.7,3.7,3.2,5.7,4.6c-0.1-3.2,0-6.3,0.2-9.5c0.2-0.1,0.3-0.2,0.5-0.4c-0.1,3.5-0.1,7.1,0.3,10.6
			c3.1,2.1,6.3,4,9.7,5.6c-0.3,0.2-0.7,0.4-1.1,0.6c-2.9-1.4-5.7-3.1-8.5-4.8c0.4,4.5,1.3,8.9,2.8,13.1c1,2.4,2,4.8,4,6.6
			c0.9,0.8,2.3,1.4,3.5,0.8c1.7-0.7,2.8-2.3,3.6-3.8c1.2-2.1,2-4.3,2.7-6.6c0.1-0.5,0.3-1,0.3-1.5c-2.7-1-5.4-2.1-7.9-3.5
			c0.4-0.2,0.8-0.4,1.2-0.6c2.2,1.1,4.7,1.9,7,2.7c0.2-0.2,0.2-0.6,0.3-0.9c0.5-2.1,0.8-4.2,1-6.4l1-0.7c0.1,2.8-0.5,5.6-0.8,8.4
			c3.2,0.8,6.6,1.5,9.9,1c1.4-0.2,2.8-0.6,3.7-1.7c0.4-0.6,0.5-1.4,0.3-2.1c-0.3-1.5-1.2-2.7-2.1-3.9c-0.7-0.9-0.4-2.2,0.5-2.8
			c0.1,0,0.1-0.1,0.2-0.1c0.9-0.5,2.3-0.2,2.8,0.8c1,2,1.9,4.2,1.8,6.5c-0.1,1.8-1,3.4-2.4,4.3c-1.8,1.2-4,1.4-6.1,1.3
			c-3-0.2-6-0.9-8.9-1.9c-0.8,3.5-1.9,7.1-4,10.1c-1.2,1.6-3,3.2-5.1,3.1c-2.2,0-3.9-1.6-5.1-3.3c-1.9-2.8-3-6.1-3.8-9.4
			c-0.8-3.4-1.2-6.9-1.5-10.4c-2.3-1.5-4.6-3.2-6.7-5c-0.4-0.3-0.7-0.7-1.1-1c-2.8-2.5-5.4-5.3-6.9-8.8c-0.6-1.5-1-3.1-0.5-4.6
			C-34.4,184.2-32.9,182.9-31.3,182.4z"/>
		<path class="st0" d="M-1.1,185.3c0.4-0.1,0.9-0.3,1.4-0.4c0.5,2.9,0.9,5.9,1,8.8c1.6,1.2,3.3,2.4,4.7,3.8
			c-1.6-1.1-3.1-2.3-4.7-3.3c0.1,2.8,0.2,5.7,0,8.5c0,0.3-0.2,0.8,0.1,1.1c-0.4,0.3-0.8,0.5-1.2,0.8c0.1-3.3,0.3-6.5,0-9.8
			c-0.1-0.5,0.1-1.3-0.5-1.6c-2.9-1.8-5.9-3.5-9.1-4.9c0.4-0.2,0.8-0.4,1.2-0.5c2.8,1.5,5.5,3.2,8.2,5
			C-0.1,190.3-0.5,187.8-1.1,185.3z"/>
		<path class="st1" d="M-0.1,183.5c3.6-1.1,7.4-2,11.1-1.6c1.9,0.2,3.9,1,4.9,2.8c1,1.7,0.7,3.8-0.1,5.5c-1.2,2.9-3.3,5.3-5.4,7.6
			c-2.8,2.8-6,5.3-9.3,7.5l-1,0.7c-2.6,1.7-5.4,3.3-8.3,4.6c-0.4,0.2-0.8,0.4-1.2,0.6c-2.1,0.9-4.2,1.9-6.4,2.4
			c2-0.8,3.9-1.7,5.8-2.6c0.4-0.2,0.7-0.4,1.1-0.6c3.2-1.7,6.3-3.6,9.2-5.6c0.4-0.3,0.8-0.5,1.2-0.8c3.3-2.4,6.3-5.2,9.1-8.2
			c1.6-1.9,3.1-3.8,3.9-6.1c0.5-1.4,0.8-3.1-0.1-4.3c-1-1.3-2.8-1.6-4.4-1.7c-3.3-0.2-6.6,0.5-9.8,1.4c-0.5,0.1-0.9,0.3-1.4,0.4
			c-2.3,0.8-4.6,1.6-6.9,2.6c-0.4,0.2-0.8,0.4-1.2,0.5c-3.4,1.6-6.6,3.5-9.7,5.7c-0.2,0.1-0.3,0.2-0.5,0.4c-2.1,1.5-4,3.1-5.9,4.9
			c-0.3-0.3-0.7-0.6-1-1c4.8-4.1,10.2-7.5,15.8-10.4c0.4-0.2,0.9-0.5,1.3-0.7c2.5-1.3,5.1-2.4,7.7-3.4C-1,183.8-0.5,183.6-0.1,183.5
			z"/>
		<path class="st1" d="M-27.4,199.3c0.4,0.3,0.7,0.7,1.1,1c-2.4,2.5-4.7,5.2-6,8.4c-0.5,1.3-0.9,3,0,4.2c1,1.1,2.6,1.2,4,1.2
			c1,0,2.1-0.5,3.1,0.1c1.3,0.7,1.4,2.7,0.1,3.5c-0.8,0.5-1.7,0.3-2.5,0.2c-2.3-0.2-4.8-0.8-6.4-2.6c-1.4-1.5-1.7-3.8-1-5.7
			c0.9-2.9,2.8-5.3,4.8-7.5C-29.4,201.2-28.4,200.2-27.4,199.3z"/>
	</g>
</g>
<g id="Layer_2_9_">
	<g id="Layer_1-2_8_">
		<path class="st0" d="M248.5,2.3c1.8-0.6,3.9,0,5.3,1.3c1.7,1.6,2.8,3.6,3.7,5.8c0.8,2.1,1.5,4.3,1.9,6.6c-0.5,0.1-0.9,0.3-1.4,0.5
			c-0.9-3.3-2.1-6.6-4.2-9.3c-0.9-1.1-2-2.2-3.5-2.2c-1.5,0.2-2.4,1.6-3.1,2.8c-0.6,0.9-0.7,2.2-1.7,2.7c-1,0.5-2.3,0.2-2.8-0.8
			c-0.1-0.2-0.2-0.3-0.2-0.5c-0.2-0.9,0.3-1.7,0.8-2.4C244.5,4.8,246.2,3,248.5,2.3z"/>
		<path class="st0" d="M228.1,14.9c2.5-0.8,5.1-0.6,7.6-0.2c5.1,0.9,9.9,2.8,14.5,5.1c-0.4,0.2-0.9,0.5-1.3,0.7l-0.3-0.2
			c-4.1-1.7-8.3-3.2-12.6-3.9c-2.6-0.4-5.3-0.7-7.7,0.3c-1.2,0.4-2.1,1.5-2.2,2.8c-0.1,2.3,1.2,4.3,2.4,6.1c1.4,1.9,2.9,3.7,4.6,5.3
			c0.3,0.3,0.7,0.6,1,1c1.8,1.7,3.7,3.2,5.7,4.6c-0.1-3.2,0-6.3,0.2-9.5c0.2-0.1,0.3-0.2,0.5-0.4c-0.1,3.5-0.1,7.1,0.3,10.6
			c3.1,2.1,6.3,4,9.7,5.6c-0.3,0.2-0.7,0.4-1.1,0.6c-2.9-1.4-5.7-3.1-8.5-4.8c0.4,4.5,1.3,8.9,2.8,13.1c1,2.4,2,4.8,4,6.6
			c0.9,0.8,2.3,1.4,3.5,0.8c1.7-0.7,2.8-2.3,3.6-3.8c1.2-2.1,2-4.3,2.7-6.6c0.1-0.5,0.3-1,0.3-1.5c-2.7-1-5.4-2.1-7.9-3.5
			c0.4-0.2,0.8-0.4,1.2-0.6c2.2,1.1,4.7,1.9,7,2.7c0.2-0.2,0.2-0.6,0.3-0.9c0.5-2.1,0.8-4.2,1-6.4l1-0.7c0.1,2.8-0.5,5.6-0.8,8.4
			c3.2,0.8,6.6,1.5,9.9,1c1.4-0.2,2.8-0.6,3.7-1.7c0.4-0.6,0.5-1.4,0.3-2.1c-0.3-1.5-1.2-2.7-2.1-3.9c-0.7-0.9-0.4-2.2,0.5-2.8
			c0.1,0,0.1-0.1,0.2-0.1c0.9-0.5,2.3-0.2,2.8,0.8c1,2,1.9,4.2,1.8,6.5c-0.1,1.8-1,3.4-2.4,4.3c-1.8,1.2-4,1.4-6.1,1.3
			c-3-0.2-6-0.9-8.9-1.9c-0.8,3.5-1.9,7.1-4,10.1c-1.2,1.6-3,3.2-5.1,3.1c-2.2,0-3.9-1.6-5.1-3.3c-1.9-2.8-3-6.1-3.8-9.4
			c-0.8-3.4-1.2-6.9-1.5-10.4c-2.3-1.5-4.6-3.2-6.7-5c-0.4-0.3-0.7-0.7-1.1-1c-2.8-2.5-5.4-5.3-6.9-8.8c-0.6-1.5-1-3.1-0.5-4.6
			C224.9,16.6,226.4,15.4,228.1,14.9z"/>
		<path class="st0" d="M258.2,17.7c0.4-0.1,0.9-0.3,1.4-0.4c0.5,2.9,0.9,5.9,1,8.8c1.6,1.2,3.3,2.4,4.7,3.8
			c-1.6-1.1-3.1-2.3-4.7-3.3c0.1,2.8,0.2,5.7,0,8.5c0,0.3-0.2,0.8,0.1,1.1c-0.4,0.3-0.8,0.5-1.2,0.8c0.1-3.3,0.3-6.5,0-9.8
			c-0.1-0.5,0.1-1.3-0.5-1.6c-2.9-1.8-5.9-3.5-9.1-4.9c0.4-0.2,0.8-0.4,1.2-0.5c2.8,1.5,5.5,3.2,8.2,5
			C259.3,22.8,258.9,20.2,258.2,17.7z"/>
		<path class="st1" d="M259.3,15.9c3.6-1.1,7.4-2,11.1-1.6c1.9,0.2,3.9,1,4.9,2.8c1,1.7,0.7,3.8-0.1,5.5c-1.2,2.9-3.3,5.3-5.4,7.6
			c-2.8,2.8-6,5.3-9.3,7.5l-1,0.7c-2.6,1.7-5.4,3.3-8.3,4.6c-0.4,0.2-0.8,0.4-1.2,0.6c-2.1,0.9-4.2,1.9-6.4,2.4
			c2-0.8,3.9-1.7,5.8-2.6c0.4-0.2,0.7-0.4,1.1-0.6c3.2-1.7,6.3-3.6,9.2-5.6c0.4-0.3,0.8-0.5,1.2-0.8c3.3-2.4,6.3-5.2,9.1-8.2
			c1.6-1.9,3.1-3.8,3.9-6.1c0.5-1.4,0.8-3.1-0.1-4.3c-1-1.3-2.8-1.6-4.4-1.7c-3.3-0.2-6.6,0.5-9.8,1.4c-0.5,0.1-0.9,0.3-1.4,0.4
			c-2.3,0.8-4.6,1.6-6.9,2.6c-0.4,0.2-0.8,0.4-1.2,0.5c-3.4,1.6-6.6,3.5-9.7,5.7c-0.2,0.1-0.3,0.2-0.5,0.4c-2.1,1.5-4,3.1-5.9,4.9
			c-0.3-0.3-0.7-0.6-1-1c4.8-4.1,10.2-7.5,15.8-10.4c0.4-0.2,0.9-0.5,1.3-0.7c2.5-1.3,5.1-2.4,7.7-3.4
			C258.4,16.2,258.8,16.1,259.3,15.9z"/>
		<path class="st1" d="M232,31.8c0.4,0.3,0.7,0.7,1.1,1c-2.4,2.5-4.7,5.2-6,8.4c-0.5,1.3-0.9,3,0,4.2c1,1.1,2.6,1.2,4,1.2
			c1,0,2.1-0.5,3.1,0.1c1.3,0.7,1.4,2.7,0.1,3.5c-0.8,0.5-1.7,0.3-2.5,0.2c-2.3-0.2-4.8-0.8-6.4-2.6c-1.4-1.5-1.7-3.8-1-5.7
			c0.9-2.9,2.8-5.3,4.8-7.5C230,33.6,231,32.7,232,31.8z"/>
	</g>
</g>
<g id="Layer_2_10_">
	<g id="Layer_1-2_9_">
		<path class="st0" d="M-10.7,1c1.8-0.6,3.9,0,5.3,1.3c1.7,1.6,2.8,3.6,3.7,5.8c0.8,2.1,1.5,4.3,1.9,6.6c-0.5,0.1-0.9,0.3-1.4,0.5
			c-0.9-3.3-2.1-6.6-4.2-9.3c-0.9-1.1-2-2.2-3.5-2.2c-1.5,0.2-2.4,1.6-3.1,2.8c-0.6,0.9-0.7,2.2-1.7,2.7c-1,0.5-2.3,0.2-2.8-0.8
			c-0.1-0.2-0.2-0.3-0.2-0.5C-17,6.9-16.5,6.1-16,5.4C-14.6,3.6-13,1.7-10.7,1z"/>
		<path class="st0" d="M-31.1,13.6c2.5-0.8,5.1-0.6,7.6-0.2c5.1,0.9,9.9,2.8,14.5,5.1c-0.4,0.2-0.9,0.5-1.3,0.7l-0.3-0.2
			c-4.1-1.7-8.3-3.2-12.6-3.9c-2.6-0.4-5.3-0.7-7.7,0.3c-1.2,0.4-2.1,1.5-2.2,2.8c-0.1,2.3,1.2,4.3,2.4,6.1c1.4,1.9,2.9,3.7,4.6,5.3
			c0.3,0.3,0.7,0.6,1,1c1.8,1.7,3.7,3.2,5.7,4.6c-0.1-3.2,0-6.3,0.2-9.5c0.2-0.1,0.3-0.2,0.5-0.4c-0.1,3.5-0.1,7.1,0.3,10.6
			c3.1,2.1,6.3,4,9.7,5.6c-0.3,0.2-0.7,0.4-1.1,0.6c-2.9-1.4-5.7-3.1-8.5-4.8c0.4,4.5,1.3,8.9,2.8,13.1c1,2.4,2,4.8,4,6.6
			c0.9,0.8,2.3,1.4,3.5,0.8c1.7-0.7,2.8-2.3,3.6-3.8c1.2-2.1,2-4.3,2.7-6.6c0.1-0.5,0.3-1,0.3-1.5c-2.7-1-5.4-2.1-7.9-3.5
			c0.4-0.2,0.8-0.4,1.2-0.6c2.2,1.1,4.7,1.9,7,2.7c0.2-0.2,0.2-0.6,0.3-0.9c0.5-2.1,0.8-4.2,1-6.4l1-0.7c0.1,2.8-0.5,5.6-0.8,8.4
			c3.2,0.8,6.6,1.5,9.9,1c1.4-0.2,2.8-0.6,3.7-1.7c0.4-0.6,0.5-1.4,0.3-2.1c-0.3-1.5-1.2-2.7-2.1-3.9c-0.7-0.9-0.4-2.2,0.5-2.8
			c0.1,0,0.1-0.1,0.2-0.1c0.9-0.5,2.3-0.2,2.8,0.8c1,2,1.9,4.2,1.8,6.5c-0.1,1.8-1,3.4-2.4,4.3c-1.8,1.2-4,1.4-6.1,1.3
			c-3-0.2-6-0.9-8.9-1.9c-0.8,3.5-1.9,7.1-4,10.1c-1.2,1.6-3,3.2-5.1,3.1c-2.2,0-3.9-1.6-5.1-3.3c-1.9-2.8-3-6.1-3.8-9.4
			c-0.8-3.4-1.2-6.9-1.5-10.4c-2.3-1.5-4.6-3.2-6.7-5c-0.4-0.3-0.7-0.7-1.1-1c-2.8-2.5-5.4-5.3-6.9-8.8c-0.6-1.5-1-3.1-0.5-4.6
			C-34.2,15.4-32.7,14.1-31.1,13.6z"/>
		<path class="st0" d="M-0.9,16.5c0.4-0.1,0.9-0.3,1.4-0.4c0.5,2.9,0.9,5.9,1,8.8c1.6,1.2,3.3,2.4,4.7,3.8c-1.6-1.1-3.1-2.3-4.7-3.3
			c0.1,2.8,0.2,5.7,0,8.5c0,0.3-0.2,0.8,0.1,1.1c-0.4,0.3-0.8,0.5-1.2,0.8c0.1-3.3,0.3-6.5,0-9.8c-0.1-0.5,0.1-1.3-0.5-1.6
			C-2.8,22.7-5.9,21-9,19.6c0.4-0.2,0.8-0.4,1.2-0.5c2.8,1.5,5.5,3.2,8.2,5C0.1,21.5-0.3,19-0.9,16.5z"/>
		<path class="st1" d="M0.1,14.7c3.6-1.1,7.4-2,11.1-1.6c1.9,0.2,3.9,1,4.9,2.8c1,1.7,0.7,3.8-0.1,5.5c-1.2,2.9-3.3,5.3-5.4,7.6
			c-2.8,2.8-6,5.3-9.3,7.5l-1,0.7c-2.6,1.7-5.4,3.3-8.3,4.6c-0.4,0.2-0.8,0.4-1.2,0.6c-2.1,0.9-4.2,1.9-6.4,2.4
			c2-0.8,3.9-1.7,5.8-2.6c0.4-0.2,0.7-0.4,1.1-0.6c3.2-1.7,6.3-3.6,9.2-5.6c0.4-0.3,0.8-0.5,1.2-0.8c3.3-2.4,6.3-5.2,9.1-8.2
			c1.6-1.9,3.1-3.8,3.9-6.1c0.5-1.4,0.8-3.1-0.1-4.3c-1-1.3-2.8-1.6-4.4-1.7c-3.3-0.2-6.6,0.5-9.8,1.4c-0.5,0.1-0.9,0.3-1.4,0.4
			c-2.3,0.8-4.6,1.6-6.9,2.6c-0.4,0.2-0.8,0.4-1.2,0.5c-3.4,1.6-6.6,3.5-9.7,5.7c-0.2,0.1-0.3,0.2-0.5,0.4c-2.1,1.5-4,3.1-5.9,4.9
			c-0.3-0.3-0.7-0.6-1-1c4.8-4.1,10.2-7.5,15.8-10.4c0.4-0.2,0.9-0.5,1.3-0.7c2.5-1.3,5.1-2.4,7.7-3.4C-0.8,15-0.3,14.8,0.1,14.7z"
			/>
		<path class="st1" d="M-27.2,30.5c0.4,0.3,0.7,0.7,1.1,1c-2.4,2.5-4.7,5.2-6,8.4c-0.5,1.3-0.9,3,0,4.2c1,1.1,2.6,1.2,4,1.2
			c1,0,2.1-0.5,3.1,0.1c1.3,0.7,1.4,2.7,0.1,3.5c-0.8,0.5-1.7,0.3-2.5,0.2c-2.3-0.2-4.8-0.8-6.4-2.6c-1.4-1.5-1.7-3.8-1-5.7
			c0.9-2.9,2.8-5.3,4.8-7.5C-29.1,32.4-28.2,31.4-27.2,30.5z"/>
	</g>
</g>
</svg>
